<?xml version="1.0" encoding="UTF-8" standalone="no"?>
<!-- Created with Inkscape (http://www.inkscape.org/) -->

<svg
   xmlns:dc="http://purl.org/dc/elements/1.1/"
   xmlns:cc="http://creativecommons.org/ns#"
   xmlns:rdf="http://www.w3.org/1999/02/22-rdf-syntax-ns#"
   xmlns:svg="http://www.w3.org/2000/svg"
   xmlns="http://www.w3.org/2000/svg"
   xmlns:sodipodi="http://sodipodi.sourceforge.net/DTD/sodipodi-0.dtd"
   xmlns:inkscape="http://www.inkscape.org/namespaces/inkscape"
   version="1.1"
   width="183.99739"
   height="155.93207"
   id="svg2"
   xml:space="preserve"
   inkscape:version="0.48.5 r10040"
   sodipodi:docname="l2.eps"><sodipodi:namedview
     pagecolor="#ffffff"
     bordercolor="#666666"
     borderopacity="1"
     objecttolerance="10"
     gridtolerance="10"
     guidetolerance="10"
     inkscape:pageopacity="0"
     inkscape:pageshadow="2"
     inkscape:window-width="1384"
     inkscape:window-height="625"
     id="namedview22"
     showgrid="false"
     inkscape:zoom="2.647485"
     inkscape:cx="91.115277"
     inkscape:cy="81.968439"
     inkscape:window-x="0"
     inkscape:window-y="0"
     inkscape:window-maximized="0"
     inkscape:current-layer="layer1"
     units="mm"
     inkscape:document-units="mm"
     fit-margin-top="1"
     fit-margin-left="1"
     fit-margin-right="1"
     fit-margin-bottom="1" /><metadata
     id="metadata8"><rdf:RDF><cc:Work
         rdf:about=""><dc:format>image/svg+xml</dc:format><dc:type
           rdf:resource="http://purl.org/dc/dcmitype/StillImage" /><dc:title></dc:title></cc:Work></rdf:RDF></metadata><defs
     id="defs6"><clipPath
       id="clipPath16"><path
         d="M 0,840 592,840 592,0 0,0 0,840 z"
         id="path18"
         inkscape:connector-curvature="0" /></clipPath></defs><g
     inkscape:groupmode="layer"
     id="layer1"
     inkscape:label="Layer"><path
       inkscape:connector-curvature="0"
       style="opacity:1;fill:#4c59c6;fill-opacity:1;fill-rule:evenodd;stroke:#000000;stroke-width:0.35433071999999999;stroke-miterlimit:4;stroke-opacity:1;stroke-dasharray:none"
       id="path366"
       d="m 153.31567,120.08237 -7.76422,0 4.41519,-17.73812 -10.24985,1.18115 0,-32.246367 -4.90647,0 0,48.803337 -53.484018,0 0,-5.65906 -54.75297,3.50372 0,1.87311 3.263312,0.28223 -25.9078901,0 -0.2257768,0 0,0.22577 0,4.60125 0,0.22369 0.2257768,0 149.3869161,0 0.22577,0 0,-0.22369 0,-4.60125 0,-0.22577 -0.22577,0 z" /><path
       inkscape:connector-curvature="0"
       style="opacity:1;fill:#4c59c6;fill-opacity:1;fill-rule:evenodd;stroke:#000000;stroke-width:0.35433071999999999;stroke-miterlimit:4;stroke-opacity:1;stroke-dasharray:none"
       id="path374"
       d="m 86.506626,53.7439 0.990909,0 0,-0.821576 c 0.01882,-0.0189 0.03554,-0.04181 0.06481,-0.0689 1.609706,-1.611796 9.593425,-3.882107 22.295455,-3.882107 12.70204,0 20.68367,2.270311 22.29337,3.882107 0.0293,0.02709 0.0481,0.05017 0.0648,0.0689 l 0,0.821576 0.99091,0 2.18251,0 0.99091,0 0,-0.990909 c 0,-1.036901 -0.43065,-1.994362 -1.2815,-2.845206 -1.72259,-1.724684 -5.55034,-3.106522 -10.70976,-3.994996 -1.27104,-1.026448 -4.48627,-1.687054 -8.19277,-2.02781 l 0.44737,0 0.993,0 0,-0.990909 c 0,-0.783948 -0.35957,-1.542809 -1.00763,-2.132337 -1.1477,-1.043172 -3.08144,-1.486364 -4.64933,-1.672421 l 0,-34.393335 0,-0.9929999 -0.993,0 -2.39993,0 -0.993,0 0,0.9929999 0,34.384973 c -3.01454,0.344937 -5.65696,1.46964 -5.65696,3.81312 l 0,0.990909 0.99091,0 0.54772,0 c -3.1776,0.286402 -6.578885,0.865478 -8.077793,2.02781 -6.225586,1.03063 -12.066516,3.014539 -12.066516,6.840202 l 0,0.990909 0.992999,0 2.18251,0 z" /><path
       inkscape:connector-curvature="0"
       style="opacity:1;fill:#4c59c6;fill-opacity:1;fill-rule:evenodd;stroke:#000000;stroke-width:0.35433071999999999;stroke-miterlimit:4;stroke-opacity:1;stroke-dasharray:none"
       id="path370"
       d="m 81.723293,71.278615 -2.314213,0 -12.102055,0 -49.164994,35.994675 8.525166,0 55.056096,-35.994675 z" /><path
       inkscape:connector-curvature="0"
       style="opacity:1;fill:#4c59c6;fill-opacity:1;fill-rule:evenodd;stroke:#000000;stroke-width:0.35433071999999999;stroke-miterlimit:4;stroke-opacity:1;stroke-dasharray:none"
       id="path378"
       d="m 81.327347,77.917707 -54.752969,31.564853 0,1.94419 54.752969,-23.301003 0,-10.20804 z" /><path
       inkscape:connector-curvature="0"
       style="opacity:1;fill:#4c59c6;fill-opacity:1;fill-rule:evenodd;stroke:#000000;stroke-width:0.35433071999999999;stroke-miterlimit:4;stroke-opacity:1;stroke-dasharray:none"
       id="path382"
       d="m 81.327347,91.030324 -54.752969,21.670396 0,1.25849 54.752969,-14.221845 0,-8.707041 z" /><path
       inkscape:connector-curvature="0"
       style="opacity:1;fill:#4c59c6;fill-opacity:1;fill-rule:nonzero;stroke:#000000;stroke-width:0.35433071999999999;stroke-miterlimit:4;stroke-opacity:1;stroke-dasharray:none"
       id="path386"
       d="m 26.573541,116.51384 54.75297,-5.14061 0,-8.63596 -54.75297,12.58706 0,1.18951 z" /><path
       inkscape:connector-curvature="0"
       style="opacity:1;fill:#4c59c6;fill-opacity:1;fill-rule:nonzero;stroke:#000000;stroke-width:0.35433071999999999;stroke-miterlimit:4;stroke-opacity:1;stroke-dasharray:none"
       id="path390"
       d="m 127.22192,56.44486 c 0.002,-0.02927 0.0104,-0.05636 0.0104,-0.08563 0,-2.050806 -7.77885,-3.714865 -17.37645,-3.714865 -9.59761,0 -17.376456,1.664059 -17.376456,3.714865 l 0,6.095974 c 4.939914,-1.724684 14.855276,-1.837572 17.343006,-1.837572 2.49818,0 12.47835,0.112888 17.39945,1.856387 l 0,-6.029077 z" /><path
       inkscape:connector-curvature="0"
       style="opacity:1;fill:#4c59c6;fill-opacity:1;fill-rule:evenodd;stroke:#000000;stroke-width:0.35433071999999999;stroke-miterlimit:4;stroke-opacity:1;stroke-dasharray:none"
       id="path394"
       d="m 127.22192,69.792451 0,-4.601248 c -1.89192,-0.838301 -7.73076,-1.983909 -17.39945,-1.983909 -9.5767,0 -15.394632,1.124703 -17.343002,1.963004 l 0,4.622153 0,2.201324 c 4.684869,-1.448734 13.883182,-1.592981 17.307462,-1.592981 3.45355,0 12.79193,0.146337 17.43499,1.630611 l 0,-2.238954 z" /><path
       inkscape:connector-curvature="0"
       style="opacity:1;fill:#4c59c6;fill-opacity:1;fill-rule:evenodd;stroke:#000000;stroke-width:0.35433071999999999;stroke-miterlimit:4;stroke-opacity:1;stroke-dasharray:none"
       id="path398"
       d="m 127.22192,76.760175 0,-2.069621 c -1.88983,-0.723322 -7.69313,-1.699598 -17.43499,-1.699598 -9.53698,0 -15.294285,0.934465 -17.307462,1.653606 l 0,2.115613 0,4.758037 c 4.434006,-1.172785 12.977982,-1.331665 17.271922,-1.331665 4.35875,0 13.09715,0.160887 17.47053,1.381838 l 0,-4.80821 z" /><path
       inkscape:connector-curvature="0"
       style="opacity:1;fill:#4c59c6;fill-opacity:1;fill-rule:evenodd;stroke:#000000;stroke-width:0.35433071999999999;stroke-miterlimit:4;stroke-opacity:1;stroke-dasharray:none"
       id="path402"
       d="m 127.22192,90.194314 0,-6.012353 c -1.92328,-0.597891 -7.76421,-1.406924 -17.47053,-1.406924 -9.39273,0 -15.164672,0.75677 -17.271922,1.346298 l 0,6.072979 0,0.827848 c 4.151785,-0.888473 12.026792,-1.049444 17.236392,-1.049444 5.32248,0 13.43372,0.169333 17.50606,1.103798 l 0,-0.882202 z" /><path
       inkscape:connector-curvature="0"
       style="opacity:1;fill:#4c59c6;fill-opacity:1;fill-rule:nonzero;stroke:#000000;stroke-width:0.35433071999999999;stroke-miterlimit:4;stroke-opacity:1;stroke-dasharray:none"
       id="path406"
       d="m 127.22192,97.160164 0,-3.507903 c -2.12815,-0.514269 -8.45827,-1.091254 -17.50606,-1.091254 -8.70077,0 -14.880369,0.530993 -17.236392,1.03272 l 0,0.522631 0,3.043806 0,3.338566 c 4.101612,-0.631334 12.016342,-0.744223 17.198762,-0.744223 5.33502,0 13.55706,0.121251 17.54369,0.798583 l 0,-3.392926 z" /><path
       inkscape:connector-curvature="0"
       style="opacity:1;fill:#4c59c6;fill-opacity:1;fill-rule:nonzero;stroke:#000000;stroke-width:0.35433071999999999;stroke-miterlimit:4;stroke-opacity:1;stroke-dasharray:none"
       id="path410"
       d="m 109.85655,110.96076 c 6.52244,0 11.85955,0.1547 14.78211,0.3533 0.31985,0.0117 1.32539,0.0669 2.03617,0.20069 0.10662,0.0189 0.19233,0.0356 0.25505,0.0564 0.11288,0.0273 0.21114,0.0585 0.28849,0.09 l 0,-0.45782 0.004,0 0,-7.07853 0,-1.00345 c -2.2076,-0.36793 -8.52726,-0.77767 -17.5437,-0.77767 -8.57115,0 -14.7173,0.37211 -17.200845,0.7275 l 0,1.05362 0,7.31266 0,0.19651 c 0.131703,-0.0398 0.309397,-0.0794 0.505907,-0.1087 0.173514,-0.0356 0.413924,-0.0689 0.71705,-0.0983 0.443192,-0.0482 0.817396,-0.0753 0.817396,-0.0753 l 0,0.003 c 2.765766,-0.22159 8.376742,-0.39511 15.338192,-0.39511" /><path
       inkscape:connector-curvature="0"
       style="opacity:1;fill:#4c59c6;fill-opacity:1;fill-rule:nonzero;stroke:#000000;stroke-width:0.35433071999999999;stroke-miterlimit:4;stroke-opacity:1;stroke-dasharray:none"
       id="path362"
       d="M 159.73839,32.494756 C 147.76177,20.520222 132.21243,13.431249 115.49867,12.179024 l 0,4.517626 c 15.50961,1.243863 29.92797,7.862469 41.05167,18.986158 12.39054,12.392639 19.21613,28.865985 19.21613,46.392956 0,36.174466 -29.43253,65.609076 -65.6091,65.609076 -17.46425,0 -33.887424,-6.78376 -46.265429,-19.09905 l -6.187957,0 c 0.926103,1.04317 1.879383,2.07171 2.874473,3.06889 13.241393,13.24348 30.851985,20.53733 49.578913,20.53733 18.72903,0 36.33754,-7.29385 49.58102,-20.53733 13.2435,-13.24348 20.53734,-30.84989 20.53734,-49.578916 0,-18.729024 -7.29384,-36.337525 -20.53734,-49.581008" /><path
       inkscape:connector-curvature="0"
       style="opacity:1;fill:#4c59c6;fill-opacity:1;fill-rule:nonzero;stroke:#000000;stroke-width:0.35433071999999999;stroke-miterlimit:4;stroke-opacity:1;stroke-dasharray:none"
       id="path358"
       d="m 104.07708,16.752459 0,-4.515536 C 68.83499,15.280728 40.976639,44.500012 40.086075,80.310724 l 4.507174,0 C 45.036441,63.448541 51.793021,47.658797 63.765464,35.684263 74.71355,24.736178 88.849687,18.144749 104.07708,16.752459" /></g></svg>